<svg version="1.1" xmlns="http://www.w3.org/2000/svg" xmlns:xlink="http://www.w3.org/1999/xlink" width="800" height="800"><defs/><g transform="scale(2,2)"><g id="background-2e262dfa"><rect fill="white" stroke="none" x="0" y="0" width="400" height="400" class="dcg-svg-background"/></g><g id="background-images-2e262dfa"/><g id="graphpaper-2e262dfa"><g id="axis-2e262dfa"><g><g><path fill="none" stroke="rgb(0,0,0)" class="dcg-svg-tickmark" paint-order="fill stroke markers" d="" stroke-opacity="0.9" stroke-miterlimit="2" stroke-width="1.5" stroke-dasharray=""/></g></g></g></g><g id="expressions-2e262dfa"><g id="sketch-2e262dfa"><title/><path fill="#6042a6" stroke="none" paint-order="stroke fill markers" d="" fill-opacity="0.4"/><g><path fill="none" stroke="#6042a6" class="dcg-svg-curve" paint-order="fill stroke markers" d=" M 5.641311766072327 220.0136702281876 L 5.641311766072327 220.0136702281876 L 209.61878843236389 325.24750478102436 L 188.75745559149317 74.10023663565292 L 391.8077619093016 180.4930341240936" stroke-linecap="round" stroke-linejoin="round" stroke-miterlimit="10" stroke-width="2.5" stroke-opacity="0.9" stroke-dasharray=""/></g><path fill="none" stroke="#6042a6" class="dcg-svg-point" paint-order="fill stroke markers" d=" M 5.541311766072328 219.9136702281876 L 5.541311766072328 220.1136702281876 L 5.741311766072327 220.1136702281876 L 5.741311766072327 219.9136702281876" stroke-linecap="round" stroke-linejoin="round" stroke-miterlimit="10" stroke-width="7.5" stroke-opacity="0.9" stroke-dasharray=""/><path fill="none" stroke="#6042a6" class="dcg-svg-point" paint-order="fill stroke markers" d=" M 209.5187884323639 325.14750478102434 L 209.5187884323639 325.3475047810244 L 209.71878843236388 325.3475047810244 L 209.71878843236388 325.14750478102434" stroke-linecap="round" stroke-linejoin="round" stroke-miterlimit="10" stroke-width="7.5" stroke-opacity="0.9" stroke-dasharray=""/><path fill="none" stroke="#6042a6" class="dcg-svg-point" paint-order="fill stroke markers" d=" M 188.65745559149318 74.00023663565293 L 188.65745559149318 74.20023663565291 L 188.85745559149316 74.20023663565291 L 188.85745559149316 74.00023663565293" stroke-linecap="round" stroke-linejoin="round" stroke-miterlimit="10" stroke-width="7.5" stroke-opacity="0.9" stroke-dasharray=""/><path fill="none" stroke="#6042a6" class="dcg-svg-point" paint-order="fill stroke markers" d=" M 391.70776190930155 180.39303412409362 L 391.70776190930155 180.5930341240936 L 391.9077619093016 180.5930341240936 L 391.9077619093016 180.39303412409362" stroke-linecap="round" stroke-linejoin="round" stroke-miterlimit="10" stroke-width="7.5" stroke-opacity="0.9" stroke-dasharray=""/></g><g id="sketch-2e262dfa"><title>Expression 11</title><path fill="none" stroke="#c74440" class="dcg-svg-point" paint-order="fill stroke markers" d=" M 138.55067314163716 238.45973741647094 L 138.55067314163716 238.65973741647093 L 138.75067314163715 238.65973741647093 L 138.75067314163715 238.45973741647094" stroke-linecap="round" stroke-linejoin="round" stroke-miterlimit="10" stroke-width="7.5" stroke-opacity="0.9" stroke-dasharray=""/></g><g id="sketch-2e262dfa"><title>Expression 12</title><path fill="none" stroke="#6042a6" class="dcg-svg-point" paint-order="fill stroke markers" d=" M 65.51068990596205 250.85241758672163 L 65.51068990596205 251.05241758672162 L 65.71068990596204 251.05241758672162 L 65.71068990596204 250.85241758672163" stroke-linecap="round" stroke-linejoin="round" stroke-miterlimit="10" stroke-width="7.5" stroke-opacity="0.9" stroke-dasharray=""/></g><g id="sketch-2e262dfa"><title>Expression 13</title><path fill="none" stroke="#6042a6" class="dcg-svg-point" paint-order="fill stroke markers" d=" M 203.3855565771479 251.31020794628517 L 203.3855565771479 251.51020794628516 L 203.58555657714788 251.51020794628516 L 203.58555657714788 251.31020794628517" stroke-linecap="round" stroke-linejoin="round" stroke-miterlimit="10" stroke-width="7.5" stroke-opacity="0.9" stroke-dasharray=""/></g><g id="sketch-2e262dfa"><title>Expression 14</title><path fill="none" stroke="#6042a6" class="dcg-svg-point" paint-order="fill stroke markers" d=" M 248.35424564892884 105.2797190972545 L 248.35424564892884 105.47971909725449 L 248.55424564892883 105.47971909725449 L 248.55424564892883 105.2797190972545" stroke-linecap="round" stroke-linejoin="round" stroke-miterlimit="10" stroke-width="7.5" stroke-opacity="0.9" stroke-dasharray=""/></g><g id="sketch-2e262dfa"><title>Expression 15</title><path fill="none" stroke="#388c46" class="dcg-svg-point" paint-order="fill stroke markers" d=" M 106.04590070729068 250.98700795243332 L 106.04590070729068 251.1870079524333 L 106.24590070729067 251.1870079524333 L 106.24590070729067 250.98700795243332" stroke-linecap="round" stroke-linejoin="round" stroke-miterlimit="10" stroke-width="7.5" stroke-opacity="0.9" stroke-dasharray=""/></g><g id="sketch-2e262dfa"><title>Expression 16</title><path fill="none" stroke="#fa7e19" class="dcg-svg-point" paint-order="fill stroke markers" d=" M 216.6063511642515 208.37724422467016 L 216.6063511642515 208.57724422467015 L 216.80635116425148 208.57724422467015 L 216.80635116425148 208.37724422467016" stroke-linecap="round" stroke-linejoin="round" stroke-miterlimit="10" stroke-width="7.5" stroke-opacity="0.9" stroke-dasharray=""/></g><g id="sketch-2e262dfa"><title>Expression 17</title><path fill="#388c46" stroke="none" paint-order="stroke fill markers" d="" fill-opacity="0.4"/><g><path fill="none" stroke="#388c46" class="dcg-svg-curve" paint-order="fill stroke markers" d=" M 65.61068990596205 250.95241758672162 L 65.61068990596205 250.95241758672162 L 203.4855565771479 251.41020794628517" stroke-linecap="round" stroke-linejoin="round" stroke-miterlimit="10" stroke-width="2.5" stroke-opacity="0.9" stroke-dasharray=""/></g></g><g id="sketch-2e262dfa"><title>Expression 18</title><path fill="#fa7e19" stroke="none" paint-order="stroke fill markers" d="" fill-opacity="0.4"/><g><path fill="none" stroke="#fa7e19" class="dcg-svg-curve" paint-order="fill stroke markers" d=" M 203.4855565771479 251.41020794628517 L 203.4855565771479 251.41020794628517 L 248.45424564892883 105.3797190972545" stroke-linecap="round" stroke-linejoin="round" stroke-miterlimit="10" stroke-width="2.5" stroke-opacity="0.9" stroke-dasharray=""/></g></g><g id="sketch-2e262dfa"><title>Expression 19</title><path fill="#c74440" stroke="none" paint-order="stroke fill markers" d="" fill-opacity="0.4"/><g><path fill="none" stroke="#c74440" class="dcg-svg-curve" paint-order="fill stroke markers" d=" M 106.14590070729068 251.0870079524333 L 106.14590070729068 251.0870079524333 L 216.7063511642515 208.47724422467016" stroke-linecap="round" stroke-linejoin="round" stroke-miterlimit="10" stroke-width="2.5" stroke-opacity="0.9" stroke-dasharray=""/></g></g><g id="sketch-2e262dfa"><title>Expression 22</title><path fill="#2d70b3" stroke="none" paint-order="stroke fill markers" d="" fill-opacity="0.4"/><g><path fill="none" stroke="#2d70b3" class="dcg-svg-curve" paint-order="fill stroke markers" d=" M 5.641311766072327 220.0136702281876 L 5.641311766072327 220.0136702281876 L 14.077391937297506 224.22589819070612 L 22.25644989592908 228.03077597456695 L 30.185873869353912 231.4400575778855 L 37.87305208495883 234.46549699877724 L 45.325372770130656 237.11884823535755 L 52.550224152256234 239.41186528574187 L 59.55499445872239 241.3563021480456 L 66.34707191691597 242.96391282038417 L 72.93384475422378 244.246451300873 L 79.32270119803272 245.21567158762747 L 85.52102947572955 245.88332767876307 L 91.53621781470113 246.26117357239514 L 97.37565444233431 246.36096326663917 L 103.04672758601592 246.19445075961053 L 108.55682547313279 245.77339004942468 L 113.91333633107175 245.109535134197 L 119.12364838721963 244.21464001204288 L 124.55228355212468 243.01279380209425 L 129.83065703993688 241.57367287854683 L 134.9678560472417 239.91173414505934 L 140.3021680289777 237.90969357975987 L 145.81754139669962 235.54239386162809 L 151.1889343845799 232.9483181320781 L 156.7340590985558 229.9778597645042 L 162.44556827733527 226.6197566432041 L 168.61086396774957 222.67694808893594 L 175.21432920914333 218.12558459154266 L 182.8104691393676 212.54022294766537 L 192.21487382098678 205.25869578946356 L 217.55753229246218 185.43520383603143 L 225.1866727150403 179.9349862201282 L 231.82743626163852 175.47985546701253 L 238.0341683001136 171.6439561533886 L 243.78923876788 168.39824479789402 L 249.38095241223775 165.5479897639305 L 254.8010992139246 163.07970294813646 L 260.0379201681053 160.9742738397985 L 265.41739943880174 159.09782406122318 L 270.60003142500204 157.5622148837935 L 275.92682690347914 156.25773467130767 L 281.4068730708186 155.19884032742445 L 286.66786548207943 154.44486545566818 L 292.077660456495 153.92917073030827 L 297.643646221452 153.6635101494602 L 303.3732110043373 153.6596377112393 L 309.2737430325378 153.92930741376105 L 315.35263053344045 154.48427325514086 L 321.6172617344318 155.33628923349414 L 328.0750248628989 156.4971093469363 L 334.73330814622847 157.97848759358277 L 341.5994998118074 159.79217797154897 L 348.68098808702246 161.9499344789503 L 355.98516119926063 164.46351111390223 L 363.51940737590866 167.34466187452006 L 371.2911148443533 170.60514075891933 L 379.30767183198145 174.25670176521544 L 387.57646656617993 178.31109889152378 L 391.8077619093016 180.4930341240936" stroke-linecap="round" stroke-linejoin="round" stroke-miterlimit="10" stroke-width="2.5" stroke-opacity="0.9" stroke-dasharray=""/></g></g></g><g id="labels-2e262dfa"/></g></svg>