<svg version="1.1" xmlns="http://www.w3.org/2000/svg" viewBox="0 0 1580.901695485469 706.6502712249755" width="1580.901695485469" height="706.6502712249755">
  <!-- svg-source:excalidraw -->
  
  <defs>
    <style class="style-fonts">
      @font-face {
        font-family: "Virgil";
        src: url("https://excalidraw.com/Virgil.woff2");
      }
      @font-face {
        font-family: "Cascadia";
        src: url("https://excalidraw.com/Cascadia.woff2");
      }
      @font-face {
        font-family: "Assistant";
        src: url("https://excalidraw.com/Assistant-Regular.woff2");
      }
    </style>
    
  </defs>
  <rect x="0" y="0" width="1580.901695485469" height="706.6502712249755" fill="#ffffff"></rect><g stroke-linecap="round"><g transform="translate(16.317394497618125 695.0000657472759) rotate(0 776.5 -340.5)"><path d="M0.73 0.39 C71.24 -94.08, 226.58 -521.09, 422.12 -565.75 C617.67 -610.41, 985.7 -248.31, 1173.99 -267.57 C1362.29 -286.84, 1488.65 -612.39, 1551.87 -681.35 M-0.35 -0.45 C70.1 -94.27, 225.55 -520.26, 421.24 -564.61 C616.92 -608.96, 985.37 -247.25, 1173.75 -266.55 C1362.13 -285.86, 1488.48 -611.34, 1551.53 -680.43" stroke="#1e1e1e" stroke-width="2" fill="none"></path></g><g transform="translate(16.317394497618125 695.0000657472759) rotate(0 776.5 -340.5)"><path d="M1546.15 -656.01 C1547.76 -661.17, 1547.03 -665.05, 1551.53 -680.43 M1546.15 -656.01 C1548.03 -662.42, 1549.42 -667.64, 1551.53 -680.43" stroke="#1e1e1e" stroke-width="2" fill="none"></path></g><g transform="translate(16.317394497618125 695.0000657472759) rotate(0 776.5 -340.5)"><path d="M1531.72 -665.18 C1536.56 -668.42, 1538.98 -670.3, 1551.53 -680.43 M1531.72 -665.18 C1537.15 -669.23, 1542.18 -672.14, 1551.53 -680.43" stroke="#1e1e1e" stroke-width="2" fill="none"></path></g></g><mask></mask><g stroke-linecap="round"><g transform="translate(13.317394497618125 695.0000657472759) rotate(0 778.5 -341.5)"><path d="M-0.67 0.62 C39.09 -57.55, 154.02 -262.37, 237.46 -349.88 C320.91 -437.4, 342.67 -525.95, 499.99 -524.48 C657.31 -523, 1005.15 -314.63, 1181.38 -341.03 C1357.62 -367.43, 1494.64 -625.76, 1557.39 -682.86 M1.18 -0.1 C40.83 -58.07, 153.23 -261.59, 236.23 -348.81 C319.24 -436.03, 341.7 -524.8, 499.22 -523.41 C656.73 -522.02, 1005.16 -313.96, 1181.31 -340.46 C1357.46 -366.96, 1493.65 -625.58, 1556.12 -682.4" stroke="#2f9e44" stroke-width="2" fill="none"></path></g><g transform="translate(13.317394497618125 695.0000657472759) rotate(0 778.5 -341.5)"><path d="M1548.11 -658.72 C1550.97 -664.48, 1550.13 -668.51, 1556.12 -682.4 M1548.11 -658.72 C1550.64 -664.71, 1553.14 -671.53, 1556.12 -682.4" stroke="#2f9e44" stroke-width="2" fill="none"></path></g><g transform="translate(13.317394497618125 695.0000657472759) rotate(0 778.5 -341.5)"><path d="M1534.76 -669.41 C1540.31 -672.88, 1542.23 -674.7, 1556.12 -682.4 M1534.76 -669.41 C1540.71 -672.5, 1546.69 -676.54, 1556.12 -682.4" stroke="#2f9e44" stroke-width="2" fill="none"></path></g></g><mask></mask><g stroke-linecap="round"><g transform="translate(14.317394497618125 693.0000657472759) rotate(0 777.5 -339.5)"><path d="M-1.02 0.81 C68.75 -61.69, 221.06 -302, 419.74 -375.53 C618.42 -449.05, 1001.71 -389.65, 1191.07 -440.34 C1380.42 -491.03, 1495.32 -640.01, 1555.88 -679.66 M0.64 0.19 C70.22 -62.1, 220.81 -300.51, 419.18 -374.26 C617.55 -448.02, 1001.29 -391.56, 1190.86 -442.33 C1380.43 -493.1, 1495.68 -639.71, 1556.58 -678.91" stroke="#e03131" stroke-width="2" fill="none"></path></g><g transform="translate(14.317394497618125 693.0000657472759) rotate(0 777.5 -339.5)"><path d="M1544.09 -657.25 C1550.45 -664.44, 1553.14 -672.41, 1556.58 -678.91 M1544.09 -657.25 C1547.88 -664.28, 1552.44 -673.55, 1556.58 -678.91" stroke="#e03131" stroke-width="2" fill="none"></path></g><g transform="translate(14.317394497618125 693.0000657472759) rotate(0 777.5 -339.5)"><path d="M1533.09 -670.35 C1543.72 -672.29, 1550.74 -675.1, 1556.58 -678.91 M1533.09 -670.35 C1540.89 -672.66, 1549.35 -677.28, 1556.58 -678.91" stroke="#e03131" stroke-width="2" fill="none"></path></g></g><mask></mask><g stroke-linecap="round"><g transform="translate(17.317394497618125 694.0000657472759) rotate(0 775.5 -339.5)"><path d="M0.52 0.15 C259.24 -113.04, 1293 -565.83, 1551.23 -679.16 M-0.66 -0.81 C258.01 -113.81, 1291.59 -564.69, 1550.4 -677.71" stroke="#1971c2" stroke-width="2" fill="none"></path></g><g transform="translate(17.317394497618125 694.0000657472759) rotate(0 775.5 -339.5)"><path d="M1532.29 -660.48 C1536.37 -663.82, 1539.67 -669.68, 1550.4 -677.71 M1532.29 -660.48 C1536.4 -664.59, 1540.85 -668.85, 1550.4 -677.71" stroke="#1971c2" stroke-width="2" fill="none"></path></g><g transform="translate(17.317394497618125 694.0000657472759) rotate(0 775.5 -339.5)"><path d="M1525.45 -676.15 C1530.97 -676.21, 1535.72 -678.76, 1550.4 -677.71 M1525.45 -676.15 C1531.03 -676.66, 1537.06 -677.3, 1550.4 -677.71" stroke="#1971c2" stroke-width="2" fill="none"></path></g></g><mask></mask><g transform="translate(569.7039562897615 103.68127272388696) rotate(25.522388694690562 83.7176675405704 43.84045778274664)"><text x="0" y="0" font-family="Virgil, Segoe UI Emoji" font-size="70.14473245239463px" fill="#1e1e1e" text-anchor="start" style="white-space: pre;" direction="ltr" dominant-baseline="text-before-edge">Path</text></g><g stroke-linecap="round"><g transform="translate(10.317394497618125 696.0000657472759) rotate(0 779.5 -342.5)"><path d="M-0.32 0.65 C10.07 -10.76, 49.34 -38.13, 61.87 -68.13 C74.39 -98.13, 56.77 -147.02, 74.84 -179.33 C92.91 -211.64, 151.84 -232.72, 170.3 -261.99 C188.75 -291.27, 169.7 -327.64, 185.59 -354.99 C201.47 -382.35, 249.49 -400.9, 265.6 -426.14 C281.71 -451.39, 263.32 -489.34, 282.24 -506.47 C301.16 -523.6, 352.19 -517.05, 379.13 -528.9 C406.06 -540.75, 422.33 -574.27, 443.87 -577.56 C465.41 -580.85, 483.56 -552.05, 508.36 -548.64 C533.17 -545.23, 568.95 -567.18, 592.69 -557.11 C616.42 -547.03, 626 -499.93, 650.77 -488.18 C675.54 -476.44, 722.49 -493.89, 741.29 -486.63 C760.09 -479.37, 741.77 -459.31, 763.55 -444.62 C785.34 -429.93, 849.15 -416.73, 872 -398.47 C894.85 -380.22, 879.22 -347.03, 900.68 -335.09 C922.13 -323.16, 977.19 -336.82, 1000.72 -326.87 C1024.25 -316.93, 1020 -282.76, 1041.86 -275.4 C1063.72 -268.03, 1114.97 -286.17, 1131.89 -282.7 C1148.82 -279.23, 1122.88 -251.82, 1143.38 -254.59 C1163.89 -257.35, 1236.45 -296.16, 1254.93 -299.29 C1273.41 -302.42, 1246.9 -274.71, 1254.28 -273.37 C1261.65 -272.02, 1293.41 -281.26, 1299.19 -291.22 C1304.96 -301.18, 1279.94 -323.83, 1288.93 -333.12 C1297.93 -342.4, 1339.56 -332.79, 1353.19 -346.94 C1366.81 -361.1, 1359.06 -404.78, 1370.7 -418.05 C1382.34 -431.32, 1415.34 -415.59, 1423 -426.55 C1430.66 -437.52, 1408.1 -470.73, 1416.67 -483.84 C1425.25 -496.95, 1461.92 -488.62, 1474.46 -505.22 C1487 -521.82, 1482.07 -567.11, 1491.92 -583.43 C1501.77 -599.75, 1527.13 -590.05, 1533.55 -603.14 C1539.97 -616.24, 1526.3 -648.2, 1530.45 -662.01 C1534.59 -675.82, 1553.75 -682.36, 1558.41 -686 M1.72 -0.05 C12.5 -11.38, 51.94 -37.5, 63.99 -67.19 C76.03 -96.88, 56.2 -145.38, 73.99 -178.19 C91.77 -211, 152.29 -234.53, 170.7 -264.02 C189.1 -293.51, 168.93 -328.44, 184.42 -355.12 C199.92 -381.81, 247.24 -398.72, 263.67 -424.13 C280.1 -449.53, 263.84 -490.03, 283.01 -507.54 C302.18 -525.05, 351.56 -517.85, 378.69 -529.19 C405.82 -540.53, 424.1 -572.29, 445.78 -575.58 C467.47 -578.86, 484.29 -552.13, 508.8 -548.9 C533.31 -545.67, 569.44 -566.74, 592.85 -556.18 C616.25 -545.62, 624.43 -496.97, 649.24 -485.57 C674.04 -474.17, 722.69 -494.52, 741.67 -487.78 C760.65 -481.04, 741.45 -459.89, 763.14 -445.14 C784.83 -430.39, 848.74 -417.82, 871.81 -399.28 C894.87 -380.74, 880.2 -346.09, 901.54 -333.89 C922.88 -321.69, 976.6 -335.92, 999.84 -326.06 C1023.09 -316.2, 1019.26 -282.01, 1041.03 -274.71 C1062.79 -267.42, 1113.28 -285.38, 1130.45 -282.29 C1147.63 -279.19, 1123.42 -253.09, 1144.07 -256.15 C1164.72 -259.2, 1235.89 -297.58, 1254.33 -300.62 C1272.77 -303.66, 1247.22 -275.79, 1254.71 -274.39 C1262.2 -272.99, 1293.3 -282.78, 1299.27 -292.2 C1305.24 -301.62, 1281.34 -321.86, 1290.54 -330.93 C1299.73 -340, 1340.89 -332.07, 1354.41 -346.62 C1367.94 -361.17, 1360.55 -404.78, 1371.7 -418.22 C1382.85 -431.66, 1413.63 -416.09, 1421.33 -427.29 C1429.03 -438.48, 1409.07 -472.63, 1417.9 -485.38 C1426.72 -498.12, 1462.19 -487.25, 1474.28 -503.77 C1486.36 -520.28, 1480.63 -568.21, 1490.41 -584.48 C1500.19 -600.75, 1526.33 -588.27, 1532.94 -601.4 C1539.54 -614.53, 1525.58 -649.59, 1530.04 -663.25 C1534.5 -676.91, 1554.72 -679.62, 1559.69 -683.37" stroke="#f08c00" stroke-width="2" fill="none"></path></g><g transform="translate(10.317394497618125 696.0000657472759) rotate(0 779.5 -342.5)"><path d="M1546.83 -671.05 C1551.13 -675.92, 1551.85 -677.7, 1559.69 -683.37 M1546.83 -671.05 C1550.74 -675.25, 1554.25 -678.71, 1559.69 -683.37" stroke="#f08c00" stroke-width="2" fill="none"></path></g><g transform="translate(10.317394497618125 696.0000657472759) rotate(0 779.5 -342.5)"><path d="M1541.92 -682.2 C1547.53 -684.13, 1549.53 -683, 1559.69 -683.37 M1541.92 -682.2 C1547.19 -683.4, 1552.04 -683.83, 1559.69 -683.37" stroke="#f08c00" stroke-width="2" fill="none"></path></g></g><mask></mask><g transform="translate(39.9004839406434 228.5685526535545) rotate(310.1041024304049 188.54343092136787 22.479918770724083)"><text x="0" y="0" font-family="Virgil, Segoe UI Emoji" font-size="35.967870033158555px" fill="#f08c00" text-anchor="start" style="white-space: pre;" direction="ltr" dominant-baseline="text-before-edge">Too Small Lookahead</text></g><g transform="translate(978.4705622594927 276.91875533406306) rotate(359.22806414250704 159.18848278946984 24.56053510923323)"><text x="0" y="0" font-family="Virgil, Segoe UI Emoji" font-size="39.29685617477316px" fill="#2f9e44" text-anchor="start" style="white-space: pre;" direction="ltr" dominant-baseline="text-before-edge">Good Lookahead</text></g><g transform="translate(359.3383548664819 250.11284757048463) rotate(354.6441749571448 183.13616473219125 24.10550953828738)"><text x="0" y="0" font-family="Virgil, Segoe UI Emoji" font-size="38.5688152612598px" fill="#e03131" text-anchor="start" style="white-space: pre;" direction="ltr" dominant-baseline="text-before-edge">Too Big Lookahead</text></g><g transform="translate(199.19615530786632 442.91561910346775) rotate(337.22482745287465 251.0420956164039 26.416603990146996)"><text x="0" y="0" font-family="Virgil, Segoe UI Emoji" font-size="42.26656638423516px" fill="#1971c2" text-anchor="start" style="white-space: pre;" direction="ltr" dominant-baseline="text-before-edge">Way Too Big Lookahead</text></g></svg>