<svg version="1.1" xmlns="http://www.w3.org/2000/svg" viewBox="0 0 577.6233804603919 386.5668923089628" width="577.6233804603919" height="386.5668923089628">
  <!-- svg-source:excalidraw -->
  
  <defs>
    <style class="style-fonts">
      @font-face {
        font-family: "Virgil";
        src: url("https://excalidraw.com/Virgil.woff2");
      }
      @font-face {
        font-family: "Cascadia";
        src: url("https://excalidraw.com/Cascadia.woff2");
      }
      @font-face {
        font-family: "Assistant";
        src: url("https://excalidraw.com/Assistant-Regular.woff2");
      }
    </style>
    
  </defs>
  <rect x="0" y="0" width="577.6233804603919" height="386.5668923089628" fill="#ffffff"></rect><g stroke-linecap="round" transform="translate(138.06815697051695 46.916610318845414) rotate(0 14 148.5)"><path d="M7 0 C10.69 0.14, 13.91 0.95, 21 0 M7 0 C11.35 -0.55, 15.8 -0.61, 21 0 M21 0 C24.39 -0.48, 27.43 4.26, 28 7 M21 0 C27.92 -0.1, 27.81 2.98, 28 7 M28 7 C28.14 106.23, 28.74 206.94, 28 290 M28 7 C27.02 80.04, 26.24 153.54, 28 290 M28 290 C26.54 292.94, 25.55 297.01, 21 297 M28 290 C28.22 295.2, 26.02 294.83, 21 297 M21 297 C17.21 296.16, 10.26 298.21, 7 297 M21 297 C17.74 296.97, 15.14 297.57, 7 297 M7 297 C3.08 298.68, -1.79 294.93, 0 290 M7 297 C4.31 295.11, 1.51 296.85, 0 290 M0 290 C2.38 194.34, -0.2 98.54, 0 7 M0 290 C-2.52 217.7, -2.32 145.09, 0 7 M0 7 C-0.23 2.73, 3.65 -1.92, 7 0 M0 7 C-1.67 1.23, 3.01 0.96, 7 0" stroke="#1e1e1e" stroke-width="2" fill="none"></path></g><g transform="translate(120.47819097051695 182.91661031884541) rotate(89.99999999999994 30.0899658203125 12.5)"><text x="0" y="17.52" font-family="Virgil, Segoe UI Emoji" font-size="20px" fill="#1e1e1e" text-anchor="start" style="white-space: pre;" direction="ltr" dominant-baseline="alphabetic">Piston</text></g><g stroke-linecap="round" transform="translate(166.06815678253247 46.91661007365889) rotate(0 14 148.49999999999997)"><path d="M7 0 C9.6 0.84, 14.62 1.11, 21 0 M7 0 C11.96 -0.26, 17.89 -0.51, 21 0 M21 0 C27.32 -1.21, 29.77 2.22, 28 7 M21 0 C27.65 0.22, 26.66 0.4, 28 7 M28 7 C27.19 82.14, 24.91 157.83, 28 290 M28 7 C29.09 81.75, 29.02 158.6, 28 290 M28 290 C28.63 293.29, 26.12 295.27, 21 297 M28 290 C29.94 292.69, 24.64 297.58, 21 297 M21 297 C15.46 295.91, 10.92 296.25, 7 297 M21 297 C17.2 297.65, 12.59 296.52, 7 297 M7 297 C0.59 297.17, -1.08 293.74, 0 290 M7 297 C2.2 296.7, -0.87 293.96, 0 290 M0 290 C-1.73 216.07, -0.87 143.37, 0 7 M0 290 C-0.68 200.08, -1.69 108.73, 0 7 M0 7 C0.69 3.68, 3.25 1.79, 7 0 M0 7 C-1.99 1.2, 2.39 2, 7 0" stroke="#1e1e1e" stroke-width="2" fill="none"></path></g><g transform="translate(148.47819078253247 182.9166100736589) rotate(89.99999999999994 30.0899658203125 12.5)"><text x="0" y="17.52" font-family="Virgil, Segoe UI Emoji" font-size="20px" fill="#1e1e1e" text-anchor="start" style="white-space: pre;" direction="ltr" dominant-baseline="alphabetic">Piston</text></g><g stroke-linecap="round" transform="translate(401.15993668512124 46.91661070561946) rotate(0 14 148.49999999999997)"><path d="M7 0 C11.99 -0.5, 16.31 1.34, 21 0 M7 0 C9.94 -0.22, 12.63 0.09, 21 0 M21 0 C27.57 -1.99, 28.61 2.53, 28 7 M21 0 C24.42 -0.12, 26.13 3.22, 28 7 M28 7 C26.35 74.96, 27.2 142.96, 28 290 M28 7 C27.04 75.75, 27.68 142.97, 28 290 M28 290 C29.44 293.29, 25.71 295.85, 21 297 M28 290 C28.66 293.26, 23.93 297.9, 21 297 M21 297 C14.66 297.26, 10.39 296.47, 7 297 M21 297 C16.87 296.9, 12.78 297.24, 7 297 M7 297 C3.01 297.81, -0.11 294.13, 0 290 M7 297 C0.21 295.54, -1.43 294.5, 0 290 M0 290 C-0.47 225.56, -0.04 160.52, 0 7 M0 290 C-1.4 203.48, -0.68 116.03, 0 7 M0 7 C-0.38 2.69, 0.58 -1.11, 7 0 M0 7 C0.56 1.27, 1.57 1.33, 7 0" stroke="#1e1e1e" stroke-width="2" fill="none"></path></g><g transform="translate(383.56997068512123 182.9166107056194) rotate(89.99999999999994 30.0899658203125 12.5)"><text x="0" y="17.52" font-family="Virgil, Segoe UI Emoji" font-size="20px" fill="#1e1e1e" text-anchor="start" style="white-space: pre;" direction="ltr" dominant-baseline="alphabetic">Piston</text></g><g stroke-linecap="round" transform="translate(429.15993649713664 46.91661046043299) rotate(0 14 148.50000000000003)"><path d="M7 0 C9.48 0.61, 14.37 -0.32, 21 0 M7 0 C11.45 -0.71, 14.77 0.05, 21 0 M21 0 C24.58 -0.1, 26.37 3.11, 28 7 M21 0 C24.33 -2.07, 27.34 2.77, 28 7 M28 7 C28.72 81.98, 31.01 156.61, 28 290 M28 7 C28.95 110.37, 28.42 214.34, 28 290 M28 290 C28.57 293.44, 24.16 297.78, 21 297 M28 290 C29.45 293.93, 27.02 294.94, 21 297 M21 297 C16.87 298.24, 11.71 297.57, 7 297 M21 297 C17.14 297.34, 12.77 296.87, 7 297 M7 297 C0.49 295.73, -1.25 294.53, 0 290 M7 297 C0.72 297.67, 1.22 294.91, 0 290 M0 290 C-0.73 194.01, 0.03 96.03, 0 7 M0 290 C-2.24 195.56, -2.76 100.42, 0 7 M0 7 C0.49 1.41, 1.67 1.16, 7 0 M0 7 C-1.14 0.29, 2.15 1.52, 7 0" stroke="#1e1e1e" stroke-width="2" fill="none"></path></g><g transform="translate(411.56997049713664 182.91661046043305) rotate(89.99999999999994 30.0899658203125 12.5)"><text x="0" y="17.52" font-family="Virgil, Segoe UI Emoji" font-size="20px" fill="#1e1e1e" text-anchor="start" style="white-space: pre;" direction="ltr" dominant-baseline="alphabetic">Piston</text></g><g stroke-linecap="round" transform="translate(138.06815741706373 10) rotate(0 159.5458895 17.07322057411824)"><path d="M8.54 0 C99.2 -2.08, 188.94 -1.98, 310.56 0 M8.54 0 C85.68 0.33, 162.26 0.61, 310.56 0 M310.56 0 C318.05 0.71, 318.24 3.63, 319.09 8.54 M310.56 0 C314.17 -0.21, 318.73 4.84, 319.09 8.54 M319.09 8.54 C319.76 14.94, 318.89 18.83, 319.09 25.61 M319.09 8.54 C320.02 12.59, 319.59 18.35, 319.09 25.61 M319.09 25.61 C317.42 32.48, 316.82 35.65, 310.56 34.15 M319.09 25.61 C320.5 30.18, 318.53 35.81, 310.56 34.15 M310.56 34.15 C197.01 35.81, 83.06 34.89, 8.54 34.15 M310.56 34.15 C200.31 32.74, 90.19 33.06, 8.54 34.15 M8.54 34.15 C3.62 35.57, 0.08 29.68, 0 25.61 M8.54 34.15 C0.93 34.79, 0.05 30.73, 0 25.61 M0 25.61 C0.41 19.66, -0.66 15.83, 0 8.54 M0 25.61 C0.59 22.43, -0.7 16.86, 0 8.54 M0 8.54 C-1.72 1.41, 2.77 -1.35, 8.54 0 M0 8.54 C1.71 1.8, 3.05 -0.67, 8.54 0" stroke="#1e1e1e" stroke-width="2" fill="none"></path></g><g transform="translate(253.2940849055832 14.573221380051393) rotate(0 44.31996154785156 12.5)"><text x="0" y="17.52" font-family="Virgil, Segoe UI Emoji" font-size="20px" fill="#1e1e1e" text-anchor="start" style="white-space: pre;" direction="ltr" dominant-baseline="alphabetic">Catapult</text></g><g stroke-linecap="round" transform="translate(138.06815641706373 345.0310240196534) rotate(0 159.54588999999993 15.767934144654703)"><path d="M7.88 0 C124.95 -0.99, 240.83 -2.21, 311.21 0 M7.88 0 C70.47 -1.84, 133.92 -1, 311.21 0 M311.21 0 C317.41 0.81, 319.24 1.53, 319.09 7.88 M311.21 0 C317.89 -1.92, 321.33 2.38, 319.09 7.88 M319.09 7.88 C318.81 10.99, 318.46 17.64, 319.09 23.65 M319.09 7.88 C318.3 13.34, 318.29 18.69, 319.09 23.65 M319.09 23.65 C318.77 28.71, 314.95 31.48, 311.21 31.54 M319.09 23.65 C317.04 29.6, 315.39 32.37, 311.21 31.54 M311.21 31.54 C241.18 33.71, 170.04 32.02, 7.88 31.54 M311.21 31.54 C206.73 31.7, 101.62 32.43, 7.88 31.54 M7.88 31.54 C4.29 33.26, 0.35 28.87, 0 23.65 M7.88 31.54 C1.86 30.56, -1.04 29.6, 0 23.65 M0 23.65 C-0.49 19.43, -1.02 14.54, 0 7.88 M0 23.65 C-0.45 20.57, 0.3 17.28, 0 7.88 M0 7.88 C0.75 2.89, 0.84 1.22, 7.88 0 M0 7.88 C0.3 0.55, 4.46 -1.19, 7.88 0" stroke="#1e1e1e" stroke-width="2" fill="none"></path></g><g transform="translate(249.14409093074858 348.29895811039535) rotate(0 48.46995544433594 12.5)"><text x="0" y="17.52" font-family="Virgil, Segoe UI Emoji" font-size="20px" fill="#1e1e1e" text-anchor="start" style="white-space: pre;" direction="ltr" dominant-baseline="alphabetic">Drivetrain</text></g><g stroke-linecap="round"><g transform="translate(34.743797933504766 308.4102030780664) rotate(0 47.50809203232893 -1.2371898966752042)"><path d="M-0.89 -0.17 C15.1 -0.5, 79.02 -1.38, 95.01 -1.72 M0.84 -1.31 C16.76 -2, 78.49 -3.53, 94.06 -3.44" stroke="#2f9e44" stroke-width="2" fill="none"></path></g><g transform="translate(34.743797933504766 308.4102030780664) rotate(0 47.50809203232893 -1.2371898966752042)"><path d="M70.67 5.39 C75.48 3.63, 82.14 1.74, 94.06 -3.44 M70.67 5.39 C77.29 2.23, 85.7 -0.39, 94.06 -3.44" stroke="#2f9e44" stroke-width="2" fill="none"></path></g><g transform="translate(34.743797933504766 308.4102030780664) rotate(0 47.50809203232893 -1.2371898966752042)"><path d="M70.47 -11.71 C75.36 -9.73, 82.06 -7.88, 94.06 -3.44 M70.47 -11.71 C77.29 -9.4, 85.76 -6.54, 94.06 -3.44" stroke="#2f9e44" stroke-width="2" fill="none"></path></g></g><mask></mask><g transform="translate(35.73354985084484 283.1715291858916) rotate(0 34.319976806640625 12.5)"><text x="0" y="17.52" font-family="Virgil, Segoe UI Emoji" font-size="20px" fill="#2f9e44" text-anchor="start" style="white-space: pre;" direction="ltr" dominant-baseline="alphabetic">Expand</text></g><g stroke-linecap="round"><g transform="translate(565.2247407713458 306.2349861062702) rotate(0 -50.005344692367316 -1.5571222119418167)"><path d="M-1.13 0.02 C-17.66 -0.51, -82.9 -3.76, -99.28 -4.17 M0.48 -1.02 C-16.14 -1.34, -83.13 -2.62, -99.85 -3.19" stroke="#2f9e44" stroke-width="2" fill="none"></path></g><g transform="translate(565.2247407713458 306.2349861062702) rotate(0 -50.005344692367316 -1.5571222119418167)"><path d="M-76.14 -11.14 C-83.07 -7.83, -91.75 -5.71, -99.85 -3.19 M-76.14 -11.14 C-83.78 -7.95, -92.74 -5.24, -99.85 -3.19" stroke="#2f9e44" stroke-width="2" fill="none"></path></g><g transform="translate(565.2247407713458 306.2349861062702) rotate(0 -50.005344692367316 -1.5571222119418167)"><path d="M-76.58 5.96 C-83.24 4.3, -91.78 1.45, -99.85 -3.19 M-76.58 5.96 C-84.15 3.07, -92.95 -0.29, -99.85 -3.19" stroke="#2f9e44" stroke-width="2" fill="none"></path></g></g><mask></mask><g transform="translate(498.3966295735431 282.02087576411475) rotate(0 34.319976806640625 12.5)"><text x="0" y="17.52" font-family="Virgil, Segoe UI Emoji" font-size="20px" fill="#2f9e44" text-anchor="start" style="white-space: pre;" direction="ltr" dominant-baseline="alphabetic">Expand</text></g><g stroke-linecap="round"><g transform="translate(566.2653562736857 79.61459750655644) rotate(0 -50.005344692367316 -1.5571222119418167)"><path d="M-0.55 -0.02 C-17.26 -0.38, -83.2 -1.53, -99.74 -1.98 M1.36 -1.07 C-15.53 -1.76, -83.58 -2.88, -100.54 -3.51" stroke="#e03131" stroke-width="2" fill="none"></path></g><g transform="translate(566.2653562736857 79.61459750655644) rotate(0 -50.005344692367316 -1.5571222119418167)"><path d="M-76.84 -11.46 C-84.95 -8.4, -91.13 -5.77, -100.54 -3.51 M-76.84 -11.46 C-85.15 -8.91, -92.12 -5.49, -100.54 -3.51" stroke="#e03131" stroke-width="2" fill="none"></path></g><g transform="translate(566.2653562736857 79.61459750655644) rotate(0 -50.005344692367316 -1.5571222119418167)"><path d="M-77.28 5.64 C-85.27 2.86, -91.3 -0.34, -100.54 -3.51 M-77.28 5.64 C-85.44 2.53, -92.27 0.32, -100.54 -3.51" stroke="#e03131" stroke-width="2" fill="none"></path></g></g><mask></mask><g stroke-linecap="round"><g transform="translate(309.628242136023 81.05920407961588) rotate(0 41.592453394976474 -1.3189343288501618)"><path d="M-0.74 -0.1 C13.23 -0.55, 70.07 -1.6, 84.07 -2.07 M1.07 -1.21 C14.94 -2.07, 70.01 -3.8, 83.58 -3.89" stroke="#e03131" stroke-width="2" fill="none"></path></g><g transform="translate(309.628242136023 81.05920407961588) rotate(0 41.592453394976474 -1.3189343288501618)"><path d="M60.28 5.16 C67.52 3.88, 76.11 -0.43, 83.58 -3.89 M60.28 5.16 C67.42 2.75, 73.74 0.63, 83.58 -3.89" stroke="#e03131" stroke-width="2" fill="none"></path></g><g transform="translate(309.628242136023 81.05920407961588) rotate(0 41.592453394976474 -1.3189343288501618)"><path d="M59.91 -11.93 C67.36 -7.74, 76.06 -6.57, 83.58 -3.89 M59.91 -11.93 C67.28 -9.62, 73.71 -7.03, 83.58 -3.89" stroke="#e03131" stroke-width="2" fill="none"></path></g></g><mask></mask><g transform="translate(487.6054064122984 56.39023908174113) rotate(0 39.53997039794922 12.5)"><text x="0" y="17.52" font-family="Virgil, Segoe UI Emoji" font-size="20px" fill="#e03131" text-anchor="start" style="white-space: pre;" direction="ltr" dominant-baseline="alphabetic">Retract</text></g><g transform="translate(300.5422940350031 59.359494833761744) rotate(0 39.53997039794922 12.5)"><text x="0" y="17.52" font-family="Virgil, Segoe UI Emoji" font-size="20px" fill="#e03131" text-anchor="start" style="white-space: pre;" direction="ltr" dominant-baseline="alphabetic">Retract</text></g><g stroke-linecap="round"><g transform="translate(292.3773724823616 82.33641527924186) rotate(0 -46.29377500234165 -1.3096842326067701)"><path d="M0.21 -0.97 C-15.06 -1.16, -76.5 -1.36, -92 -1.6 M-1.14 1.14 C-16.49 0.67, -77.22 -2.84, -92.64 -3.19" stroke="#e03131" stroke-width="2" fill="none"></path></g><g transform="translate(292.3773724823616 82.33641527924186) rotate(0 -46.29377500234165 -1.3096842326067701)"><path d="M-68.81 -10.74 C-76.91 -7.68, -80.08 -6.95, -92.64 -3.19 M-68.81 -10.74 C-76.69 -9.31, -84.57 -5.8, -92.64 -3.19" stroke="#e03131" stroke-width="2" fill="none"></path></g><g transform="translate(292.3773724823616 82.33641527924186) rotate(0 -46.29377500234165 -1.3096842326067701)"><path d="M-69.53 6.34 C-77.38 4.77, -80.35 0.87, -92.64 -3.19 M-69.53 6.34 C-77.04 2.34, -84.69 0.42, -92.64 -3.19" stroke="#e03131" stroke-width="2" fill="none"></path></g></g><mask></mask><g stroke-linecap="round"><g transform="translate(38.21463813804951 84.76085534692947) rotate(0 44.06683318832688 -1.557122211941845)"><path d="M0.59 1.01 C15.2 0.69, 73.5 -2.22, 87.93 -2.9 M-0.57 0.5 C13.86 -0.12, 71.86 -4.53, 86.87 -4.91" stroke="#e03131" stroke-width="2" fill="none"></path></g><g transform="translate(38.21463813804951 84.76085534692947) rotate(0 44.06683318832688 -1.557122211941845)"><path d="M63.87 4.88 C72.95 1.32, 78.92 -3.08, 86.87 -4.91 M63.87 4.88 C70.33 2.28, 77.12 -1.55, 86.87 -4.91" stroke="#e03131" stroke-width="2" fill="none"></path></g><g transform="translate(38.21463813804951 84.76085534692947) rotate(0 44.06683318832688 -1.557122211941845)"><path d="M62.96 -12.19 C72.19 -10.34, 78.45 -9.32, 86.87 -4.91 M62.96 -12.19 C69.65 -9.62, 76.72 -8.27, 86.87 -4.91" stroke="#e03131" stroke-width="2" fill="none"></path></g></g><mask></mask><g transform="translate(218.6661822076751 59.60693281309659) rotate(0 39.53997039794922 12.5)"><text x="0" y="17.52" font-family="Virgil, Segoe UI Emoji" font-size="20px" fill="#e03131" text-anchor="start" style="white-space: pre;" direction="ltr" dominant-baseline="alphabetic">Retract</text></g><g transform="translate(25.664558326339034 61.09156068910693) rotate(0 39.53997039794922 12.5)"><text x="0" y="17.52" font-family="Virgil, Segoe UI Emoji" font-size="20px" fill="#e03131" text-anchor="start" style="white-space: pre;" direction="ltr" dominant-baseline="alphabetic">Retract</text></g><g stroke-linecap="round"><g transform="translate(41.92424633690587 169.35005869177007) rotate(0 0.383395128747793 -38.10544881759719)"><path d="M0.18 -1.15 C0.24 -14.06, 0.74 -64.81, 0.72 -77.33 M-1.19 0.86 C-1.31 -11.95, -0.88 -63.74, -0.25 -76.38" stroke="#1e1e1e" stroke-width="2" fill="none"></path></g><g transform="translate(41.92424633690587 169.35005869177007) rotate(0 0.383395128747793 -38.10544881759719)"><path d="M7.7 -52.68 C3.16 -60.48, 0.62 -69.33, -0.25 -76.38 M7.7 -52.68 C5.47 -58.98, 3.67 -66.11, -0.25 -76.38" stroke="#1e1e1e" stroke-width="2" fill="none"></path></g><g transform="translate(41.92424633690587 169.35005869177007) rotate(0 0.383395128747793 -38.10544881759719)"><path d="M-9.4 -53.11 C-8.35 -60.8, -5.31 -69.51, -0.25 -76.38 M-9.4 -53.11 C-6.54 -59.3, -3.26 -66.3, -0.25 -76.38" stroke="#1e1e1e" stroke-width="2" fill="none"></path></g></g><mask></mask><g stroke-linecap="round"><g transform="translate(35.51692141566889 222.32956252645056) rotate(0 3.154884849088546 25.967099701689676)"><path d="M1.15 0.33 C2.21 8.93, 4.75 42.47, 5.57 51.02 M0.3 -0.54 C1.81 8.24, 7.09 43.19, 7.9 52.08" stroke="#1e1e1e" stroke-width="2" fill="none"></path></g><g transform="translate(35.51692141566889 222.32956252645056) rotate(0 3.154884849088546 25.967099701689676)"><path d="M-3.52 29.84 C-0.39 33.72, 0.21 39.77, 7.9 52.08 M-3.52 29.84 C-1.29 35.07, 2.39 42.68, 7.9 52.08" stroke="#1e1e1e" stroke-width="2" fill="none"></path></g><g transform="translate(35.51692141566889 222.32956252645056) rotate(0 3.154884849088546 25.967099701689676)"><path d="M13.45 27.7 C12.58 32.25, 9.2 38.8, 7.9 52.08 M13.45 27.7 C11.01 33.51, 10.02 41.7, 7.9 52.08" stroke="#1e1e1e" stroke-width="2" fill="none"></path></g></g><mask></mask><g transform="translate(10 171.32956252645056) rotate(0 62.82994842529297 25)"><text x="0" y="17.52" font-family="Virgil, Segoe UI Emoji" font-size="20px" fill="#1e1e1e" text-anchor="start" style="white-space: pre;" direction="ltr" dominant-baseline="alphabetic">Independent </text><text x="0" y="42.519999999999996" font-family="Virgil, Segoe UI Emoji" font-size="20px" fill="#1e1e1e" text-anchor="start" style="white-space: pre;" direction="ltr" dominant-baseline="alphabetic">Solenoids</text></g></svg>