<svg version="1.1" xmlns="http://www.w3.org/2000/svg" viewBox="0 0 149.6000952262475 510.90930941368083" width="149.6000952262475" height="510.90930941368083">
  <!-- svg-source:excalidraw -->
  
  <defs>
    <style class="style-fonts">
      @font-face {
        font-family: "Virgil";
        src: url("https://excalidraw.com/Virgil.woff2");
      }
      @font-face {
        font-family: "Cascadia";
        src: url("https://excalidraw.com/Cascadia.woff2");
      }
      @font-face {
        font-family: "Assistant";
        src: url("https://excalidraw.com/Assistant-Regular.woff2");
      }
    </style>
    
  </defs>
  <rect x="0" y="0" width="149.6000952262475" height="510.90930941368083" fill="#ffffff"></rect><g stroke-linecap="round" transform="translate(37.51250652599015 245.90570408794795) rotate(0 28.5390625 22)"><path d="M0 0 C21.01 -1.13, 40.03 0.9, 57.08 0 M0 0 C18.48 0.92, 36.79 0.21, 57.08 0 M57.08 0 C58.14 15.64, 55.49 31.13, 57.08 44 M57.08 0 C56.54 13.38, 57.89 28.09, 57.08 44 M57.08 44 C44.89 42.95, 29.35 43.14, 0 44 M57.08 44 C42.64 43.32, 29.36 42.97, 0 44 M0 44 C0.65 34.42, 0.13 19.24, 0 0 M0 44 C0.53 27.58, -1.18 9.61, 0 0" stroke="#1e1e1e" stroke-width="2" fill="none"></path></g><g stroke-linecap="round" transform="translate(13.65777002843322 92.13675694462543) rotate(0 61.6875 22)"><path d="M0 0 C40.06 1.66, 81.25 1.03, 123.38 0 M0 0 C34.43 -0.89, 67.75 -1.45, 123.38 0 M123.38 0 C122.3 10.21, 123.86 22.2, 123.38 44 M123.38 0 C123.73 18.17, 122.55 34.29, 123.38 44 M123.38 44 C83.54 42.23, 41.27 43.14, 0 44 M123.38 44 C92.47 42.78, 61.56 44.41, 0 44 M0 44 C0.29 31.46, 1.57 23.9, 0 0 M0 44 C-1.23 28.73, 0.07 12.71, 0 0" stroke="#1e1e1e" stroke-width="2" fill="none"></path></g><g stroke-linecap="round" transform="translate(11.396428591951121 382.58588348534204) rotate(0 60.4921875 22)"><path d="M0 0 C30.74 -0.21, 60.33 0.39, 120.98 0 M0 0 C46.07 -0.57, 90.39 0.59, 120.98 0 M120.98 0 C120.89 13.5, 122.58 24.17, 120.98 44 M120.98 0 C120.76 11.55, 121.55 25, 120.98 44 M120.98 44 C90.81 43.27, 61.96 42.03, 0 44 M120.98 44 C89.01 43.99, 57.26 43.62, 0 44 M0 44 C1.68 28.07, 0.79 10.85, 0 0 M0 44 C0.82 26.65, -0.51 11.95, 0 0" stroke="#1e1e1e" stroke-width="2" fill="none"></path></g><g mask="url(#mask-dDCaYVXP7x6S9QBLlqnu2)" stroke-linecap="round"><g transform="translate(59.28586416524092 239.42753819218248) rotate(0 -16.936161457654805 -51.145390623778525)"><path d="M0.26 -0.33 C-5.39 -8.85, -33.15 -33.95, -33.25 -50.93 C-33.35 -67.92, -5.79 -93.57, -0.36 -102.23 M-1.06 -1.56 C-6.87 -10.42, -33.95 -36.02, -33.87 -52.58 C-33.79 -69.13, -6.22 -92.63, -0.58 -100.88" stroke="#1e1e1e" stroke-width="2" fill="none"></path></g><g transform="translate(59.28586416524092 239.42753819218248) rotate(0 -16.936161457654805 -51.145390623778525)"><path d="M-9.72 -77.61 C-7.08 -84.81, -1.78 -92.35, -0.58 -100.88 M-9.72 -77.61 C-7.63 -84.02, -4.38 -92.44, -0.58 -100.88" stroke="#1e1e1e" stroke-width="2" fill="none"></path></g><g transform="translate(59.28586416524092 239.42753819218248) rotate(0 -16.936161457654805 -51.145390623778525)"><path d="M-22.54 -88.93 C-15.36 -92.16, -5.53 -95.7, -0.58 -100.88 M-22.54 -88.93 C-16.47 -91.82, -9.32 -96.79, -0.58 -100.88" stroke="#1e1e1e" stroke-width="2" fill="none"></path></g></g><mask id="mask-dDCaYVXP7x6S9QBLlqnu2"><rect x="0" y="0" fill="#fff" width="193.15818708055053" height="441.7183194397395"></rect><rect x="14.803555898368813" y="175.0822781596093" fill="#000" width="21.219970703125" height="25" opacity="1"></rect></mask><g mask="url(#mask-5iJxnNUfTFahZTiJCxuIs)" stroke-linecap="round"><g transform="translate(60.69869826947547 290.99663502931605) rotate(0 -14.354357832247501 40.2717112263843)"><path d="M0.62 0.91 C-4.03 8.17, -27.54 30.03, -27.68 43.19 C-27.82 56.36, -4.56 73.58, -0.21 79.93 M-0.51 0.34 C-5.26 7.84, -28.07 31.33, -28.08 44.76 C-28.1 58.19, -5 75.19, -0.6 80.93" stroke="#1e1e1e" stroke-width="2" fill="none"></path></g><g transform="translate(60.69869826947547 290.99663502931605) rotate(0 -14.354357832247501 40.2717112263843)"><path d="M-21.76 71.18 C-13.47 75.93, -8.08 78.54, -0.6 80.93 M-21.76 71.18 C-16.65 72.79, -11.55 76, -0.6 80.93" stroke="#1e1e1e" stroke-width="2" fill="none"></path></g><g transform="translate(60.69869826947547 290.99663502931605) rotate(0 -14.354357832247501 40.2717112263843)"><path d="M-10.55 59.86 C-5.89 68.31, -4.11 74.56, -0.6 80.93 M-10.55 59.86 C-8.29 64.36, -5.98 70.38, -0.6 80.93" stroke="#1e1e1e" stroke-width="2" fill="none"></path></g></g><mask id="mask-5iJxnNUfTFahZTiJCxuIs"><rect x="0" y="0" fill="#fff" width="189.40741393397047" height="471.54005748208465"></rect><rect x="10" y="321.6331516188926" fill="#000" width="43.97996520996094" height="25" opacity="1"></rect></mask><g mask="url(#mask-Ez0RkaLoZ8-vDEsQqUzSL)" stroke-linecap="round"><g transform="translate(84.75373288092021 375.0856431302932) rotate(0 4.317903080737722 -41.82809104885993)"><path d="M1.03 0.06 C5 -6.82, 27.22 -26.56, 24.43 -40.38 C21.63 -54.21, -9.14 -75.53, -15.74 -82.88 M0.12 -0.96 C3.93 -7.77, 26.68 -25.19, 23.85 -39.17 C21.02 -53.15, -10.39 -77.38, -16.86 -84.82" stroke="#1e1e1e" stroke-width="2" fill="none"></path></g><g transform="translate(84.75373288092021 375.0856431302932) rotate(0 4.317903080737722 -41.82809104885993)"><path d="M6.09 -74.9 C-1.96 -77, -11.16 -82.8, -16.86 -84.82 M6.09 -74.9 C-2.53 -78.57, -10.28 -81.34, -16.86 -84.82" stroke="#1e1e1e" stroke-width="2" fill="none"></path></g><g transform="translate(84.75373288092021 375.0856431302932) rotate(0 4.317903080737722 -41.82809104885993)"><path d="M-5.65 -62.47 C-9.67 -69.04, -14.73 -79.21, -16.86 -84.82 M-5.65 -62.47 C-9.98 -70.59, -13.45 -77.89, -16.86 -84.82" stroke="#1e1e1e" stroke-width="2" fill="none"></path></g></g><mask id="mask-Ez0RkaLoZ8-vDEsQqUzSL"><rect x="0" y="0" fill="#fff" width="223.5363652099104" height="558.7418252280131"></rect><rect x="97.85296677459053" y="322.81501350162875" fill="#000" width="21.219970703125" height="25" opacity="1"></rect></mask><g mask="url(#mask-EmgCbf_7QQ9pK1gCFHEjo)" stroke-linecap="round"><g transform="translate(83.74223613479853 437.5153201268654) rotate(0 -13.511783046104824 25.44699464340772)"><path d="M0.72 -0.61 C4.03 4.22, 22.9 20.63, 20.9 29.08 C18.89 37.53, 0.32 49.15, -11.31 50.08 C-22.94 51, -46.23 42.76, -48.91 34.61 C-51.58 26.45, -30.73 6.96, -27.34 1.14 M-0.37 1.68 C3.25 6.17, 25.22 19.15, 23.26 27.36 C21.29 35.58, -0.12 49.56, -12.14 50.96 C-24.15 52.37, -46.08 44.52, -48.83 35.77 C-51.57 27.02, -32.12 4.68, -28.59 -1.53" stroke="#1e1e1e" stroke-width="2" fill="none"></path></g><g transform="translate(83.74223613479853 437.5153201268654) rotate(0 -13.511783046104824 25.44699464340772)"><path d="M-33.86 17.9 C-32.86 9.25, -28.51 2.67, -28.59 -1.53 M-33.86 17.9 C-32.23 14.34, -32.06 8.61, -28.59 -1.53" stroke="#1e1e1e" stroke-width="2" fill="none"></path></g><g transform="translate(83.74223613479853 437.5153201268654) rotate(0 -13.511783046104824 25.44699464340772)"><path d="M-45.12 9.97 C-39.77 4.31, -31.07 0.8, -28.59 -1.53 M-45.12 9.97 C-40.9 8.23, -38.12 4.34, -28.59 -1.53" stroke="#1e1e1e" stroke-width="2" fill="none"></path></g></g><mask id="mask-EmgCbf_7QQ9pK1gCFHEjo"><rect x="0" y="0" fill="#fff" width="253.89877510222527" height="588.4093094136808"></rect><rect x="50.55509336156342" y="475.90930941368083" fill="#000" width="43.97996520996094" height="25" opacity="1"></rect></mask><g mask="url(#mask-5UWqCWFS6Wl8pClYKmPJb)" stroke-linecap="round"><g transform="translate(80.75532920214914 88.68041975244302) rotate(0 -7.851785639514048 -33.09020987622151)"><path d="M-0.67 0.77 C2.29 -5.69, 19.33 -28.27, 18.47 -39.41 C17.61 -50.55, 2.89 -65.31, -5.83 -66.06 C-14.55 -66.81, -33.97 -54.86, -33.85 -43.91 C-33.74 -32.95, -10.2 -7.8, -5.14 -0.33 M1.18 0.14 C3.91 -6.14, 18.78 -27.5, 17.46 -38.3 C16.14 -49.1, 1.71 -63.41, -6.76 -64.68 C-15.24 -65.94, -33.94 -56.63, -33.38 -45.87 C-32.82 -35.1, -8.06 -7.82, -3.39 -0.11" stroke="#1e1e1e" stroke-width="2" fill="none"></path></g><g transform="translate(80.75532920214914 88.68041975244302) rotate(0 -7.851785639514048 -33.09020987622151)"><path d="M-24.32 -13.78 C-15.57 -8.93, -10.69 -4.35, -3.39 -0.11 M-24.32 -13.78 C-18.47 -10.01, -10.63 -4.7, -3.39 -0.11" stroke="#1e1e1e" stroke-width="2" fill="none"></path></g><g transform="translate(80.75532920214914 88.68041975244302) rotate(0 -7.851785639514048 -33.09020987622151)"><path d="M-10.64 -24.03 C-6.86 -15.58, -6.91 -7.31, -3.39 -0.11 M-10.64 -24.03 C-9 -16.95, -5.4 -8.46, -3.39 -0.11" stroke="#1e1e1e" stroke-width="2" fill="none"></path></g></g><mask id="mask-5UWqCWFS6Wl8pClYKmPJb"><rect x="0" y="0" fill="#fff" width="233.62232920214922" height="254.86083950488603"></rect><rect x="64.62885373550273" y="10" fill="#000" width="21.219970703125" height="25" opacity="1"></rect></mask><g mask="url(#mask-CfEJ9Lr-EMP4hn62CLl7t)" stroke-linecap="round"><g transform="translate(80.15758589656855 137.13675694462543) rotate(0 11.598630312646321 49.52086998371337)"><path d="M-0.11 -0.82 C6.19 9.25, 39.42 44.33, 37.14 61.17 C34.85 78, -5.12 93.92, -13.82 100.18 M-1.63 1.37 C4.54 11.58, 38.14 46.59, 36.02 62.77 C33.9 78.95, -5.81 92.29, -14.36 98.43" stroke="#1e1e1e" stroke-width="2" fill="none"></path></g><g transform="translate(80.15758589656855 137.13675694462543) rotate(0 11.598630312646321 49.52086998371337)"><path d="M2.59 80.06 C-2.79 84, -5.37 89.73, -14.36 98.43 M2.59 80.06 C-3.58 88.06, -11.44 94.07, -14.36 98.43" stroke="#1e1e1e" stroke-width="2" fill="none"></path></g><g transform="translate(80.15758589656855 137.13675694462543) rotate(0 11.598630312646321 49.52086998371337)"><path d="M10.43 95.26 C3.04 95.48, -1.45 97.5, -14.36 98.43 M10.43 95.26 C1.28 97.24, -9.69 97.25, -14.36 98.43" stroke="#1e1e1e" stroke-width="2" fill="none"></path></g></g><mask id="mask-CfEJ9Lr-EMP4hn62CLl7t"><rect x="0" y="0" fill="#fff" width="231.86537872067288" height="336.1784969120522"></rect><rect x="95.62013001628657" y="185.67993904234538" fill="#000" width="43.97996520996094" height="25" opacity="1"></rect></mask><g transform="translate(50.07158855724015 255.40570408794795) rotate(0 15.97998046875 12.5)"><text x="15.97998046875" y="17.52" font-family="Virgil, Segoe UI Emoji" font-size="20px" fill="#1e1e1e" text-anchor="middle" style="white-space: pre;" direction="ltr" dominant-baseline="alphabetic">idle</text></g><g transform="translate(31.13530909093322 101.63675694462543) rotate(0 44.2099609375 12.5)"><text x="44.2099609375" y="17.52" font-family="Virgil, Segoe UI Emoji" font-size="20px" fill="#1e1e1e" text-anchor="middle" style="white-space: pre;" direction="ltr" dominant-baseline="alphabetic">expanded</text></g><g transform="translate(23.668660647615184 392.08588348534204) rotate(0 48.21995544433594 12.5)"><text x="48.21995544433594" y="17.52" font-family="Virgil, Segoe UI Emoji" font-size="20px" fill="#1e1e1e" text-anchor="middle" style="white-space: pre;" direction="ltr" dominant-baseline="alphabetic">retracted</text></g><g transform="translate(14.803555898368813 175.08227815960925) rotate(0 27.676334240330846 13.061862510778951)"><text x="10.6099853515625" y="17.52" font-family="Virgil, Segoe UI Emoji" font-size="20px" fill="#1e1e1e" text-anchor="middle" style="white-space: pre;" direction="ltr" dominant-baseline="alphabetic">up</text></g><g transform="translate(10 321.6331516188926) rotate(0 36.968379830679226 9.997394415299368)"><text x="21.98998260498047" y="17.52" font-family="Virgil, Segoe UI Emoji" font-size="20px" fill="#1e1e1e" text-anchor="middle" style="white-space: pre;" direction="ltr" dominant-baseline="alphabetic">down</text></g><g transform="translate(97.85296677459041 322.81501350162875) rotate(0 -9.195873497461946 9.891188384587565)"><text x="10.6099853515625" y="17.52" font-family="Virgil, Segoe UI Emoji" font-size="20px" fill="#1e1e1e" text-anchor="middle" style="white-space: pre;" direction="ltr" dominant-baseline="alphabetic">up</text></g><g transform="translate(50.55509336156342 475.90930941368083) rotate(0 20.305988221079133 -13.59720456809788)"><text x="21.98998260498047" y="17.52" font-family="Virgil, Segoe UI Emoji" font-size="20px" fill="#1e1e1e" text-anchor="middle" style="white-space: pre;" direction="ltr" dominant-baseline="alphabetic">down</text></g><g transform="translate(64.62885373550273 10) rotate(0 8.448255287973666 46.02209092759564)"><text x="10.6099853515625" y="17.52" font-family="Virgil, Segoe UI Emoji" font-size="20px" fill="#1e1e1e" text-anchor="middle" style="white-space: pre;" direction="ltr" dominant-baseline="alphabetic">up</text></g><g transform="translate(95.62013001628657 185.67993904234527) rotate(0 -4.02050369673816 1.1376975122926183)"><text x="21.98998260498047" y="17.52" font-family="Virgil, Segoe UI Emoji" font-size="20px" fill="#1e1e1e" text-anchor="middle" style="white-space: pre;" direction="ltr" dominant-baseline="alphabetic">down</text></g></svg>